<?xml version="1.0" encoding="UTF-8"?>
<svg xmlns="http://www.w3.org/2000/svg" xmlns:xlink="http://www.w3.org/1999/xlink" viewBox="0 0 64 64" width="64px"
  height="64px">
  <g id="surface46953300">
    <path style=" stroke:none;fill-rule:nonzero;fill:black;fill-opacity:0.5;"
      d="M 32 7.371094 C 25.6875 7.371094 19.378906 9.773438 14.574219 14.574219 C 4.96875 24.179688 4.96875 39.820312 14.574219 49.425781 C 19.421875 54.269531 25.710938 56.648438 32 56.648438 C 38.289062 56.648438 44.578125 54.269531 49.425781 49.425781 C 59.03125 39.820312 59.03125 24.179688 49.425781 14.574219 C 44.621094 9.773438 38.3125 7.371094 32 7.371094 Z M 32 9.898438 C 37.695312 9.898438 43.304688 12.023438 47.640625 16.359375 C 56.226562 25.03125 56.226562 39.054688 47.640625 47.640625 C 38.96875 56.226562 24.945312 56.226562 16.359375 47.640625 C 7.773438 39.054688 7.773438 25.03125 16.359375 16.359375 C 20.695312 12.023438 26.304688 9.898438 32 9.898438 Z M 32 22.648438 C 31.320312 22.648438 30.726562 23.160156 30.726562 23.925781 L 30.726562 30.726562 L 23.925781 30.726562 C 23.160156 30.726562 22.648438 31.234375 22.648438 32 C 22.648438 32.679688 23.160156 33.273438 23.925781 33.273438 L 30.726562 33.273438 L 30.726562 40.074219 C 30.726562 40.753906 31.234375 41.351562 32 41.351562 C 32.679688 41.351562 33.273438 40.753906 33.273438 40.074219 L 33.273438 33.273438 L 40.074219 33.273438 C 40.753906 33.273438 41.351562 32.679688 41.351562 32 C 41.351562 31.320312 40.753906 30.726562 40.074219 30.726562 L 33.273438 30.726562 L 33.273438 23.925781 C 33.273438 23.160156 32.679688 22.648438 32 22.648438 Z M 32 22.648438 " />
  </g>
</svg>
